<?xml version="1.0" standalone="no"?>
<!DOCTYPE svg PUBLIC "-//W3C//DTD SVG 20010904//EN"
 "http://www.w3.org/TR/2001/REC-SVG-20010904/DTD/svg10.dtd">
<svg version="1.0" xmlns="http://www.w3.org/2000/svg"
 width="370.000000pt" height="370.000000pt" viewBox="0 0 370.000000 370.000000"
 preserveAspectRatio="xMidYMid meet">
<metadata>
Created by potrace 1.11, written by Peter Selinger 2001-2013
</metadata>
<g transform="translate(0.000000,370.000000) scale(0.100000,-0.100000)"
fill="#000000" stroke="none">
<path d="M1776 3319 c-630 -66 -1152 -513 -1306 -1119 -89 -348 -55 -688 100
-1016 204 -432 607 -741 1085 -830 138 -26 392 -26 530 0 478 89 881 398 1085
830 184 388 197 797 39 1201 -236 607 -886 1002 -1533 934z m454 -157 c199
-47 400 -144 538 -259 l33 -28 -193 3 c-193 2 -193 2 -163 -16 44 -28 71 -61
97 -117 20 -44 23 -70 26 -213 6 -226 -17 -371 -83 -537 -31 -77 -33 -88 -39
-270 -11 -299 -41 -563 -88 -785 -42 -200 -77 -212 -152 -50 -66 145 -135 406
-151 575 -11 118 -51 175 -132 193 -85 18 -172 -29 -192 -107 -6 -20 -19 -106
-31 -191 -32 -240 -96 -501 -135 -557 -35 -50 -75 -18 -100 79 -47 178 -76
465 -80 788 -3 252 -3 257 -34 360 -52 176 -72 287 -78 433 -10 228 18 322
111 385 l50 33 -197 -3 c-108 -2 -197 -2 -197 -1 0 1 30 26 68 56 161 129 340
205 569 242 128 21 439 13 553 -13z"/>
<path d="M2148 2883 c7 -3 16 -2 19 1 4 3 -2 6 -13 5 -11 0 -14 -3 -6 -6z"/>
<path d="M1816 2859 c109 -19 114 -19 205 0 l94 19 -205 0 -205 0 111 -19z"/>
</g>
</svg>
